<?xml version="1.0" encoding="utf-8"?>
<!-- Generator: Adobe Illustrator 19.0.0, SVG Export Plug-In . SVG Version: 6.00 Build 0)  -->
<svg version="1.1" id="Capa_1" xmlns="http://www.w3.org/2000/svg" xmlns:xlink="http://www.w3.org/1999/xlink" x="137px" y="26px"
	 viewBox="0 0 264.446 49.679" enable-background="new 0 0 264.446 49.679" xml:space="preserve">
<g>
	<path fill="#6AB023" d="M36.863,11.101c0.213-0.431,0.654-0.729,1.167-0.729c0.246,0,0.478,0.064,0.673,0.181
		c4.964,2.855,8.099,8.194,8.099,13.986c0,3.106-0.883,6.12-2.555,8.717c-1.397,2.167-3.452,4.056-5.746,5.378v0.001
		c-0.193,0.112-0.413,0.175-0.651,0.175c-0.503,0-0.938-0.284-1.157-0.702l-2.813-4.895l2.256-4.689l2.572,4.456
		c2.447-2.499,3.615-5.448,3.615-8.441c0-3.052-1.204-5.929-3.25-8.062L24.988,46.01l-0.006-0.001
		c-0.813,1.78-2.608,3.013-4.691,3.013c-0.444,0-0.872-0.055-1.281-0.159l-0.001,0.005c-4.65-1.166-8.886-3.643-12.223-7.206
		c-4.375-4.675-6.785-10.773-6.785-17.174c0-6.406,2.41-12.506,6.785-17.179c3.259-3.476,7.218-5.855,11.586-7.075v0.004
		c0.471-0.14,0.973-0.216,1.488-0.216c1.848,0,3.468,0.97,4.38,2.428h0.002l2.264,3.916l-2.291,4.813l-3.164-5.452V5.725
		c-0.322-0.54-0.911-0.905-1.585-0.905c-0.207,0-0.404,0.035-0.586,0.096l-0.004-0.002C10.579,7.554,4.589,15.318,4.589,24.488
		c0,9.209,6.161,17.137,14.665,19.684c0.185,0.062,0.38,0.102,0.587,0.102c0.673,0,1.262-0.365,1.584-0.908L36.863,11.101z"/>
	<path fill="#6AB023" d="M19.04,37.922c-0.213,0.431-0.655,0.729-1.169,0.729c-0.244,0-0.475-0.064-0.668-0.181
		c-4.968-2.855-8.101-8.196-8.101-13.986c0-3.106,0.883-6.119,2.556-8.716c1.395-2.169,3.453-4.057,5.744-5.379v-0.003
		c0.193-0.11,0.415-0.174,0.65-0.174c0.505,0,0.94,0.285,1.158,0.7l2.813,4.898l-2.256,4.691l-2.571-4.459
		c-2.448,2.499-3.615,5.449-3.615,8.442c0,3.05,1.204,5.928,3.247,8.061L30.915,3.013h0.004C31.735,1.235,33.53,0,35.613,0
		c0.444,0,0.871,0.054,1.28,0.157l0.003-0.002c4.648,1.164,8.885,3.642,12.221,7.206c4.377,4.673,6.785,10.773,6.785,17.175
		c0,6.405-2.408,12.505-6.785,17.178c-3.259,3.477-7.217,5.854-11.584,7.073l-0.004-0.005c-0.47,0.145-0.969,0.219-1.488,0.219
		c-1.846,0-3.467-0.971-4.379-2.427H31.66l-2.26-3.917l2.288-4.812l3.165,5.451v0.001c0.319,0.543,0.91,0.904,1.585,0.904
		c0.206,0,0.403-0.032,0.588-0.095v0.003c8.297-2.638,14.287-10.405,14.287-19.573c0-9.212-6.161-17.139-14.663-19.686
		c-0.185-0.062-0.381-0.103-0.588-0.103c-0.674,0-1.264,0.366-1.583,0.908L19.04,37.922z"/>
	<path d="M64.821,32.932c1.085,0.4,2.191,0.743,3.32,1.028c1.127,0.286,2.219,0.428,3.276,0.428c0.885,0,1.706-0.099,2.462-0.3
		c0.757-0.199,1.414-0.499,1.971-0.898c0.556-0.4,0.992-0.885,1.306-1.456c0.314-0.572,0.471-1.242,0.471-2.014
		c0-0.57-0.129-1.07-0.385-1.499c-0.258-0.428-0.586-0.813-0.984-1.155c-0.402-0.344-0.873-0.664-1.415-0.965
		c-0.543-0.3-1.084-0.62-1.626-0.964c-1.829-1.085-3.278-2.206-4.349-3.361c-1.071-1.157-1.606-2.521-1.606-4.09
		c0-1.543,0.271-2.92,0.814-4.134c0.542-1.214,1.313-2.233,2.313-3.062c0.999-0.828,2.206-1.463,3.62-1.906
		c1.413-0.443,3.004-0.665,4.775-0.665c1.569,0,2.926,0.117,4.068,0.343c1.142,0.231,2.341,0.586,3.598,1.071
		c-0.114,0.772-0.315,1.585-0.6,2.442c-0.285,0.856-0.685,1.699-1.199,2.526c-0.828-0.398-1.678-0.727-2.549-0.983
		c-0.871-0.259-2.005-0.387-3.405-0.387c-0.514,0-1.063,0.042-1.647,0.128c-0.587,0.087-1.115,0.25-1.585,0.493
		c-0.472,0.243-0.865,0.578-1.178,1.006c-0.315,0.43-0.472,0.986-0.472,1.671c0,0.972,0.349,1.771,1.05,2.398
		c0.699,0.628,1.591,1.257,2.676,1.884c0.971,0.543,1.87,1.086,2.698,1.628c0.829,0.543,1.556,1.128,2.186,1.757
		c0.626,0.628,1.119,1.335,1.477,2.119c0.356,0.786,0.535,1.692,0.535,2.721c0,1.456-0.263,2.854-0.793,4.196
		c-0.528,1.344-1.342,2.514-2.441,3.513c-1.099,1-2.49,1.799-4.175,2.397c-1.686,0.601-3.684,0.901-5.997,0.901
		c-2.684,0-5.325-0.5-7.923-1.499c0.114-0.858,0.321-1.72,0.621-2.591C64.029,34.782,64.393,33.874,64.821,32.932"/>
	<path d="M101.611,21.668c-0.258-0.056-0.508-0.093-0.75-0.106c-0.242-0.016-0.479-0.022-0.705-0.022
		c-1.371,0-2.535,0.342-3.491,1.028c-0.957,0.685-1.749,1.542-2.377,2.569c-0.629,1.028-1.086,2.136-1.371,3.319
		c-0.287,1.187-0.429,2.263-0.429,3.235c0,2.112,0.699,3.17,2.098,3.17c1.372,0,2.641-0.836,3.813-2.506
		c1.17-1.671,2.026-4.02,2.569-7.045L101.611,21.668z M106.022,29.634c-0.314,1.8-0.543,3.392-0.685,4.776
		c-0.144,1.385-0.213,2.462-0.213,3.234v0.793c0,0.214,0.012,0.448,0.043,0.706c-0.944,0.171-1.872,0.257-2.786,0.257
		c-0.798,0-1.685-0.086-2.655-0.257c-0.057-0.229-0.114-0.499-0.171-0.815c-0.057-0.312-0.086-0.784-0.086-1.413v-0.813
		c0-0.285,0.029-0.614,0.086-0.986c-0.829,1.314-1.885,2.414-3.169,3.298c-1.286,0.885-2.785,1.328-4.498,1.328
		c-1.884,0-3.298-0.599-4.24-1.798c-0.941-1.2-1.413-2.785-1.413-4.754c0-2.143,0.321-4.211,0.964-6.21
		c0.642-1.999,1.599-3.77,2.869-5.312c1.27-1.542,2.849-2.776,4.733-3.705c1.884-0.927,4.082-1.392,6.595-1.392
		c1.257,0,2.428,0.085,3.514,0.257c1.084,0.172,2.154,0.415,3.212,0.729L106.022,29.634z"/>
	<path d="M111.889,26.593c0.314-1.799,0.549-3.39,0.707-4.775c0.156-1.384,0.235-2.462,0.235-3.234v-0.792
		c0-0.215-0.014-0.45-0.042-0.707c0.941-0.171,1.884-0.257,2.826-0.257c0.429,0,0.857,0.022,1.285,0.065
		c0.428,0.043,0.885,0.107,1.37,0.192c0.057,0.23,0.114,0.5,0.172,0.815c0.057,0.313,0.086,0.785,0.086,1.413
		c0,0.257-0.008,0.513-0.022,0.77c-0.013,0.257-0.05,0.573-0.107,0.943c0.344-0.6,0.771-1.17,1.285-1.713
		c0.515-0.542,1.1-1.014,1.756-1.413c0.656-0.401,1.363-0.714,2.12-0.943c0.757-0.228,1.521-0.343,2.292-0.343
		c1.713,0,3.047,0.435,4.004,1.306c0.956,0.872,1.435,2.32,1.435,4.349c0,0.428-0.029,0.885-0.086,1.37
		c-0.058,0.485-0.128,0.999-0.213,1.542l-2.485,14.048c-1.086,0.171-2.128,0.256-3.126,0.256c-1.001,0-1.986-0.085-2.956-0.256
		l2.4-13.577c0.112-0.572,0.17-1.115,0.17-1.628c0-0.857-0.186-1.456-0.557-1.798c-0.371-0.344-0.9-0.515-1.584-0.515
		c-0.401,0-0.85,0.101-1.35,0.299c-0.499,0.201-1.007,0.622-1.521,1.265c-0.513,0.641-1.013,1.548-1.498,2.719
		c-0.486,1.17-0.9,2.712-1.242,4.625l-1.584,8.61c-1.115,0.171-2.157,0.256-3.128,0.256c-1,0-1.985-0.085-2.955-0.256
		L111.889,26.593z"/>
	<path d="M145.981,8.477c1.17-0.199,2.298-0.3,3.383-0.3c0.543,0,1.042,0.029,1.499,0.086c0.457,0.057,0.957,0.129,1.499,0.214
		l3.556,17.175l9.979-17.175c0.485-0.113,0.985-0.192,1.499-0.235c0.514-0.043,1.028-0.065,1.542-0.065
		c0.485,0,0.991,0.022,1.521,0.065c0.527,0.043,1.034,0.122,1.519,0.235l-4.025,30.751c-1.172,0.172-2.214,0.258-3.127,0.258
		c-1,0-1.942-0.086-2.827-0.258l2.87-20.172l-8.138,13.748c-0.428,0.058-0.85,0.108-1.263,0.15
		c-0.414,0.043-0.821,0.065-1.221,0.065c-0.4,0-0.792-0.015-1.178-0.043c-0.385-0.029-0.778-0.086-1.178-0.172l-2.784-13.919
		l-4.154,20.343c-1,0.172-1.927,0.258-2.784,0.258c-0.856,0-1.756-0.086-2.698-0.258L145.981,8.477z"/>
	<path d="M178.315,13.359c-0.027-0.999,0.035-1.948,0.194-2.848c0.157-0.9,0.407-1.849,0.75-2.848
		c0.513-0.114,1.055-0.193,1.627-0.236c0.571-0.043,1.084-0.064,1.542-0.064c0.457,0,0.963,0.021,1.521,0.064
		c0.556,0.043,1.076,0.122,1.562,0.236c0,0.999-0.085,1.956-0.256,2.869c-0.171,0.915-0.428,1.857-0.772,2.827
		c-0.513,0.086-1.049,0.144-1.605,0.171c-0.558,0.029-1.065,0.043-1.522,0.043c-0.428,0-0.927-0.014-1.499-0.043
		C179.287,13.503,178.772,13.445,178.315,13.359 M177.074,21.711h-2.698c0-0.085-0.007-0.171-0.022-0.257
		c-0.014-0.086-0.021-0.185-0.021-0.3c0-0.742,0.07-1.434,0.214-2.077c0.142-0.643,0.356-1.307,0.642-1.992h8.653l-3.899,22.143
		c-1.086,0.171-2.113,0.257-3.084,0.257c-0.885,0-1.841-0.086-2.868-0.257L177.074,21.711z"/>
	<path d="M200.63,21.669c-0.257-0.057-0.507-0.093-0.75-0.107c-0.242-0.014-0.477-0.022-0.706-0.022
		c-1.37,0-2.542,0.344-3.512,1.028c-0.972,0.686-1.764,1.535-2.377,2.548c-0.614,1.015-1.071,2.114-1.371,3.299
		c-0.299,1.184-0.449,2.263-0.449,3.233c0,1.029,0.177,1.821,0.535,2.377c0.356,0.557,0.891,0.835,1.605,0.835
		c1.371,0,2.642-0.835,3.813-2.506c1.171-1.67,2.027-4.017,2.57-7.045L200.63,21.669z M198.661,35.074
		c-0.828,1.314-1.899,2.42-3.212,3.32c-1.314,0.899-2.827,1.349-4.54,1.349c-1.886,0-3.306-0.607-4.262-1.819
		c-0.957-1.215-1.434-2.807-1.434-4.777c0-2.141,0.321-4.204,0.964-6.189c0.641-1.984,1.597-3.748,2.869-5.289
		c1.269-1.542,2.854-2.777,4.754-3.704c1.899-0.929,4.105-1.393,6.617-1.393c2.483,0,4.797,0.329,6.938,0.985l-3.768,21.201
		c-0.402,2.283-1.108,4.132-2.12,5.546c-1.014,1.415-2.193,2.519-3.535,3.319c-1.342,0.8-2.761,1.343-4.26,1.628
		c-1.5,0.285-2.949,0.428-4.348,0.428s-2.584-0.085-3.555-0.256c-0.97-0.172-1.712-0.344-2.226-0.515
		c0.028-0.485,0.063-0.928,0.106-1.327c0.044-0.401,0.108-0.785,0.194-1.156c0.085-0.372,0.199-0.744,0.341-1.115
		c0.143-0.371,0.343-0.785,0.601-1.242c0.456,0.144,1.077,0.279,1.862,0.407c0.785,0.129,1.635,0.193,2.549,0.193
		c0.799,0,1.634-0.064,2.505-0.193c0.871-0.128,1.713-0.421,2.526-0.878c0.815-0.457,1.557-1.142,2.229-2.056
		c0.67-0.914,1.191-2.17,1.562-3.769L198.661,35.074z"/>
	<path d="M212.408,17.085c0.542-0.086,1.077-0.149,1.606-0.192c0.528-0.043,1.034-0.065,1.52-0.065c0.971,0,1.956,0.086,2.956,0.257
		l-2.398,13.577c-0.116,0.571-0.172,1.114-0.172,1.628c0,0.857,0.186,1.456,0.557,1.798c0.37,0.344,0.899,0.515,1.584,0.515
		c0.399,0,0.849-0.101,1.35-0.299c0.499-0.2,1.006-0.622,1.52-1.265c0.514-0.642,1.013-1.542,1.499-2.697
		c0.485-1.157,0.9-2.705,1.243-4.649l1.585-8.608c1.112-0.171,2.154-0.257,3.126-0.257c0.97,0,1.955,0.086,2.955,0.257
		l-2.314,12.635c-0.315,1.799-0.549,3.39-0.706,4.775c-0.158,1.385-0.236,2.463-0.236,3.234v0.793c0,0.213,0.014,0.45,0.043,0.706
		c-0.942,0.171-1.885,0.257-2.826,0.257c-0.8,0-1.686-0.086-2.656-0.257c-0.058-0.228-0.115-0.499-0.171-0.814
		c-0.058-0.313-0.086-0.785-0.086-1.413c0-0.257,0.007-0.515,0.022-0.77c0.014-0.258,0.049-0.572,0.107-0.943
		c-0.343,0.6-0.771,1.17-1.285,1.713c-0.513,0.542-1.099,1.014-1.756,1.413c-0.657,0.4-1.364,0.714-2.12,0.942
		c-0.758,0.229-1.521,0.343-2.292,0.343c-1.713,0-3.048-0.435-4.004-1.306c-0.958-0.871-1.435-2.32-1.435-4.348
		c0-0.428,0.028-0.884,0.086-1.369c0.057-0.486,0.129-1,0.215-1.542L212.408,17.085z"/>
	<path d="M241.188,26.465c1.085-0.171,1.971-0.393,2.656-0.664c0.686-0.272,1.228-0.571,1.628-0.9c0.4-0.328,0.67-0.664,0.814-1.006
		c0.143-0.342,0.214-0.685,0.214-1.029c0-0.542-0.179-0.984-0.535-1.326c-0.359-0.344-0.836-0.515-1.435-0.515
		c-0.743,0-1.422,0.165-2.035,0.494c-0.614,0.328-1.149,0.762-1.606,1.305c-0.457,0.542-0.849,1.164-1.178,1.864
		c-0.328,0.7-0.578,1.407-0.749,2.12L241.188,26.465z M238.748,30.834c0.172,1.371,0.628,2.392,1.37,3.062
		c0.743,0.67,1.828,1.005,3.255,1.005c1.143,0,2.148-0.121,3.02-0.362c0.871-0.242,1.792-0.564,2.763-0.965
		c0.456,0.573,0.763,1.264,0.92,2.077c0.157,0.815,0.235,1.679,0.235,2.591c-0.485,0.23-1.048,0.437-1.691,0.621
		c-0.643,0.188-1.307,0.344-1.991,0.472c-0.687,0.129-1.371,0.228-2.056,0.3c-0.686,0.071-1.301,0.106-1.843,0.106
		c-1.741,0-3.233-0.214-4.474-0.641c-1.242-0.428-2.27-1.035-3.084-1.821c-0.814-0.784-1.413-1.74-1.799-2.87
		c-0.385-1.127-0.578-2.377-0.578-3.747c0-1.741,0.3-3.454,0.899-5.14c0.6-1.684,1.449-3.189,2.549-4.517
		c1.098-1.328,2.44-2.4,4.025-3.213c1.584-0.814,3.362-1.221,5.333-1.221c0.942,0,1.82,0.115,2.634,0.343
		c0.813,0.229,1.52,0.578,2.119,1.049c0.6,0.471,1.071,1.05,1.414,1.734c0.343,0.686,0.514,1.486,0.514,2.4
		c0,1.284-0.301,2.398-0.9,3.34c-0.599,0.943-1.399,1.742-2.399,2.399c-1,0.656-2.134,1.191-3.404,1.605
		c-1.271,0.414-2.591,0.722-3.962,0.92L238.748,30.834z"/>
	<path d="M257.293,16.229c0.313-1.513,0.535-2.833,0.664-3.961c0.128-1.128,0.191-2.078,0.191-2.849c0-0.314-0.006-0.578-0.02-0.792
		c-0.016-0.213-0.036-0.45-0.064-0.707c0.485-0.085,1.041-0.15,1.669-0.193c0.628-0.043,1.171-0.063,1.628-0.063
		c0.828,0,1.742,0.086,2.742,0.256c0.142,0.429,0.213,0.971,0.213,1.628c0,0.599-0.057,1.285-0.17,2.055
		c-0.116,0.772-0.257,1.614-0.429,2.527l-3.298,17.218c-0.085,0.486-0.128,0.885-0.128,1.199c0,0.457,0.064,0.814,0.192,1.071
		c0.128,0.257,0.292,0.457,0.493,0.599c0.199,0.144,0.428,0.237,0.685,0.28c0.257,0.042,0.514,0.063,0.771,0.063
		c0.114,0,0.328-0.021,0.643-0.063c0.313-0.043,0.6-0.108,0.857-0.194c0.141,0.487,0.262,1.014,0.364,1.584
		c0.099,0.572,0.149,1.157,0.149,1.757c0,0.229-0.007,0.443-0.021,0.643c-0.015,0.199-0.036,0.413-0.065,0.642
		c-0.427,0.171-0.984,0.306-1.67,0.406c-0.685,0.1-1.442,0.15-2.27,0.15c-1.942,0-3.469-0.477-4.583-1.434
		c-1.113-0.957-1.67-2.463-1.67-4.519c0-0.4,0.027-0.821,0.086-1.263c0.057-0.443,0.128-0.906,0.214-1.392L257.293,16.229z"/>
</g>
</svg>
